PathFileType	4	(X/Y/Z)	Patient4_TMGait_0pt6_01_left_18.trc.trc
DataRate	CameraRate	NumFrames	NumMarkers	Units	OrigDataRate	OrigDataStartFrame	OrigNumFrames
82.840236686390	82.840236686390	4	33	mm	82.840236686390	18	       141
Frame#	Time	Sacral			L.Shoulder			Chest			R.Shoulder			Neck			R.ASIS			L.ASIS			R.Thigh.Superior			R.Thigh.Lateral			R.Thigh.Inferior			R.Patella			L.Thigh.Superior			L.Thigh.Lateral			L.Thigh.Inferior			L.Patella			L.Shank.Superior			L.Shank.Lateral			L.Shank.Inferior			R.Shank.Superior			R.Shank.Lateral			R.Shank.Inferior			R.Heel			R.Midfoot.Superior			R.Midfoot.Lateral			R.Toe			L.Heel			L.Midfoot.Lateral			L.Midfoot.Superior			L.Toe			L.Elbow			L.Wrist			R.Elbow			R.Wrist			
		X1	Y1	Z1	X2	Y2	Z2	X3	Y3	Z3	X4	Y4	Z4	X5	Y5	Z5	X6	Y6	Z6	X7	Y7	Z7	X8	Y8	Z8	X9	Y9	Z9	X10	Y10	Z10	X11	Y11	Z11	X12	Y12	Z12	X13	Y13	Z13	X14	Y14	Z14	X15	Y15	Z15	X16	Y16	Z16	X17	Y17	Z17	X18	Y18	Z18	X19	Y19	Z19	X20	Y20	Z20	X21	Y21	Z21	X22	Y22	Z22	X23	Y23	Z23	X24	Y24	Z24	X25	Y25	Z25	X26	Y26	Z26	X27	Y27	Z27	X28	Y28	Z28	X29	Y29	Z29	X30	Y30	Z30	X31	Y31	Z31	X32	Y32	Z32	X33	Y33	Z33	

18	22.085214285714	617.262684124361	1009.876179099730	535.191525964387	786.325841578488	1433.157238240906	346.403657964869	903.431711085147	1360.696958103552	495.835995270222	838.785993426851	1434.198328504941	676.500704224410	782.503476395127	1490.858083829527	501.913955334057	845.756594440852	933.561597322598	635.794354194375	817.087646624264	958.082970957918	362.835735111039	842.271442166519	722.103772397782	606.335758392143	739.235990982656	630.116167325618	669.735347811409	796.788759938828	564.366754775617	587.686938235319	777.688612391294	481.042934726956	592.046960828754	889.222661208832	771.559269135251	398.226311796497	846.074296376865	648.805044339204	312.554042960646	943.471198383014	586.217672825450	380.155168163630	972.965080106292	525.733651790408	375.234665821638	961.261130243828	456.138137364415	362.746842344998	908.220716204360	321.599961660546	309.277771990915	1001.646898093273	230.168536020014	366.924198763049	740.643701812115	396.940716907898	598.581643956782	659.490168644707	300.987816741958	659.719758708485	689.856203944053	202.968146992188	594.559346153592	542.270592191805	43.983940715562	561.053940257797	713.219684971959	96.049758652215	602.436520147053	623.072021969900	36.228340729088	637.408142454716	831.777853343638	40.956458347666	633.502814921836	930.550214045533	46.094160804607	404.034811504959	1008.477523632388	52.260673931489	327.983693183905	1073.159778625315	134.734091660348	348.094133687966	1209.688750844288	112.854034408185	331.048709361460	664.660329317432	1097.134381645785	247.765405698749	628.424073755691	841.203334227288	253.741300877060	982.078063885431	1129.764093575846	797.192583021754	1210.987245440965	1215.731342809659	736.552012655773	
19	22.097285714286	618.242155634728	1008.943176692492	533.333618818308	786.612927353639	1432.623107921168	345.124409923005	903.909069538720	1359.915768077663	494.319084579042	839.313324152023	1433.210793068887	675.004446556063	782.757920987397	1489.921258563913	500.720369514440	846.661540664314	932.711699236437	633.964147900797	818.070112604969	956.900910717485	360.898271860013	841.223747779072	720.925880222275	605.247501134657	737.080595207155	629.785260047073	668.698038605470	794.306356954450	563.293811336271	587.100525889879	774.357984637422	480.045668115351	591.461062079285	890.055586499551	770.063185479632	396.218695153816	844.766023934858	646.288227006434	312.216894364778	942.977426038503	584.156449305725	378.657604732902	972.015052981858	523.554392787490	374.245691079197	960.129064993587	453.794396607239	362.435400980668	906.217780536411	318.985015563891	310.982825164965	1000.286223364305	227.920323474491	368.061364140928	736.500308291240	396.331748366883	598.135666124460	654.311109388044	301.341242134229	659.465005937107	683.759419404698	202.840230487389	594.514637131449	535.056046203092	44.373404729099	561.169318674607	706.108550862965	96.079678331933	602.622498641435	615.843848328379	36.300864095016	637.421970547766	824.518419290171	40.624450132010	633.584466667167	929.192960846990	44.882994852584	407.463507111565	1005.865942455602	50.311016709884	330.147876980241	1071.629248440954	131.983427464629	349.126008839696	1207.525398211423	108.737521498466	329.884686104798	661.981131173659	1098.144790155474	246.707325479316	623.638543292250	842.419184511175	252.790410223587	986.250646374330	1131.343518840101	795.650912244487	1211.948382585423	1224.072482900306	734.584392909954	
20	22.109357142857	619.413642734852	1007.881656100992	531.247779985296	786.934230709377	1431.992032913996	343.698037513213	904.403671669819	1359.119825032058	492.691495699520	839.727186010031	1432.120895813905	673.400502541887	782.976698297061	1488.893798362102	499.389091852720	847.752153727765	931.793472202109	632.033002584208	819.332466298625	955.614687633710	358.848158656912	840.403071029563	719.683393912260	604.097318860704	735.127205879217	629.418246588389	667.565109637844	792.049205635459	562.167484022326	586.437749621711	771.215143764540	478.981594922402	590.776225178630	891.159204364020	768.463588423083	394.038420658455	843.621534256192	643.604654223233	311.924170505358	942.713272516608	582.049788031927	377.207990998514	971.147612458369	521.041496587504	373.347319506229	958.843279913840	450.985358620183	362.247162144559	903.447092122646	316.153211502496	312.829318820311	997.715372060956	225.027903020898	369.362898578454	732.543523894456	395.668877027587	597.614153994148	649.257904533810	301.696527839685	659.135566457746	677.751078893693	202.703573150081	594.432209637912	527.851627070125	44.822281986197	561.294498431489	699.020934471312	96.129571814629	602.797420689259	608.631562141510	36.405742922080	637.441770528366	817.261815013087	40.297308529626	633.668789253517	925.747691647440	43.428087193695	410.878877702680	1001.105394416861	48.037694274663	332.233574487999	1068.376869091453	128.417053870156	350.349274634318	1203.488789142685	103.134462438448	328.663568691596	659.963601771297	1098.803648534720	245.549290695306	619.899857344891	843.237855205799	251.621873712515	989.789723361707	1132.541678202110	794.084657032050	1212.603707016541	1231.025586820978	732.799074145508	
21	22.121428571429	620.760929911465	1006.702670326509	528.949503706213	787.312566867847	1431.251488960883	342.104522644852	904.923274222906	1358.310513362103	490.951427875140	840.018317176777	1430.940065883086	671.684259689228	783.178010594531	1487.785925056443	497.896185612023	849.015033929323	930.799127068901	630.017917117856	820.864110015066	954.238864931754	356.712335925967	839.843301387960	718.371247165270	602.900332277437	733.411088025833	629.001415720023	666.329241151776	790.047766588497	560.984488684045	585.678175104355	768.291876538701	477.836348422327	589.963808126225	892.469495974235	766.750175602507	391.740333430810	842.694232384184	640.857325971763	311.610560763993	942.667236815475	579.946614449404	375.821587492434	970.324335703943	518.279116072811	372.571968881603	957.465544916435	447.841455070253	362.141879863065	900.166373950014	313.199138784170	314.657604214031	994.239272848022	221.668698584511	370.738998750029	728.795285824916	394.941461709804	596.992427783357	644.362321164740	302.046838209953	658.715523469600	671.846612094599	202.555074046183	594.296692812536	520.656002559107	45.348108307496	561.434169289466	691.966053999048	96.203433740644	602.953623188942	601.437667614389	36.557510796066	637.472453358575	810.015406882200	39.978682956596	633.756046525148	920.640024013002	41.855812173178	414.084846038681	994.717812767066	45.600046010685	334.142392624912	1063.823272836205	124.251339103192	351.727278138721	1198.037719280474	96.367165575567	327.550418345003	658.602918704258	1099.084429676304	244.242179194749	617.236013548845	843.629671922197	250.208720539008	992.662223295761	1133.306109647517	792.496384437661	1213.002508767924	1236.582440759291	731.196651527443	
